<svg xmlns="http://www.w3.org/2000/svg" width="49.2" height="49.2" viewBox="0 0 49.2 49.2"><defs><style>.a{fill:#050401;}</style></defs><path class="a" d="M24.6,0a.819.819,0,0,0-.82.82v10.9a.82.82,0,1,0,1.64,0V1.655A22.96,22.96,0,1,1,8.336,8.394.82.82,0,1,0,7.175,7.236,24.6,24.6,0,1,0,24.6,0Z" transform="translate(0)"/><path class="a" d="M26.835,30.917a2.915,2.915,0,0,0,2.135,1.195c.076.007.153.009.228.009a2.922,2.922,0,0,0,1.716-5.287L20.3,19.156A.821.821,0,0,0,19.155,20.3Zm3.116-2.755a1.282,1.282,0,1,1-1.789,1.793l-4.685-6.476Z" transform="translate(-3.42 -3.42)"/></svg>